<?xml version="1.0" standalone="no"?>
<!DOCTYPE svg PUBLIC "-//W3C//DTD SVG 20010904//EN"
 "http://www.w3.org/TR/2001/REC-SVG-20010904/DTD/svg10.dtd">
<svg version="1.0" xmlns="http://www.w3.org/2000/svg"
 width="16.000000pt" height="16.000000pt" viewBox="0 0 16.000000 16.000000"
 preserveAspectRatio="xMidYMid meet">
<metadata>
Created by potrace 1.11, written by Peter Selinger 2001-2013
</metadata>
<g transform="translate(0.000000,16.000000) scale(0.006250,-0.006250)"
fill="#000000" stroke="none">
<path d="M1035 2515 c-398 -83 -708 -320 -888 -680 -26 -53 -83 -208 -92 -253
-52 -250 -42 -482 29 -695 26 -76 59 -158 77 -187 5 -8 19 -32 31 -54 36 -60
41 -69 73 -111 17 -22 33 -42 38 -43 4 -2 7 -7 7 -12 0 -12 203 -210 215 -210
1 0 33 -20 71 -46 125 -82 278 -145 436 -180 102 -22 330 -27 443 -9 391 64
725 299 913 645 62 114 112 253 128 358 3 20 10 57 14 82 24 126 -3 428 -44
509 -16 30 -57 58 -93 64 -10 1 -24 6 -30 10 -7 5 -13 4 -13 0 0 -5 -15 -14
-33 -21 -46 -17 -82 -80 -73 -130 4 -21 10 -70 13 -109 5 -67 4 -73 -13 -73
-39 -1 -103 -38 -110 -64 -11 -45 3 -74 49 -97 23 -12 43 -21 45 -20 1 0 9 1
17 1 13 0 15 -10 10 -52 -16 -144 -90 -327 -183 -448 -123 -162 -306 -294
-482 -349 -69 -22 -208 -47 -215 -39 -3 2 -6 13 -8 24 -7 42 -40 94 -63 100
-64 16 -108 -28 -113 -114 -1 -22 -147 1 -249 38 -338 125 -598 444 -637 781
l-7 56 46 12 c56 14 86 41 86 79 0 43 -25 69 -80 83 l-50 13 5 50 c16 144 56
254 142 389 48 74 94 127 106 120 5 -3 7 -1 4 4 -8 12 72 89 153 150 115 86
283 153 421 168 l56 7 13 -47 c16 -56 44 -85 82 -85 33 0 77 39 79 70 1 11 3
25 4 30 1 6 3 15 4 20 1 13 107 13 171 -1 28 -6 99 -36 158 -66 90 -46 113
-54 145 -50 82 11 133 82 115 160 -12 54 -26 68 -106 110 -104 53 -221 94
-322 113 -19 3 -46 8 -60 11 -14 3 -92 6 -175 8 -125 2 -168 -1 -260 -20z"/>
<path d="M2202 2225 c-19 -8 -207 -188 -445 -425 -226 -225 -417 -410 -423
-410 -7 0 -17 6 -21 14 -17 30 -144 156 -172 170 -49 26 -116 -1 -159 -62 -28
-39 -34 -76 -19 -112 18 -42 314 -339 346 -347 39 -11 44 -10 76 5 41 19 950
926 982 979 19 32 23 50 18 74 -12 52 -94 130 -137 129 -7 -1 -28 -7 -46 -15z"/>
</g>
</svg>
